<mxfile host="app.diagrams.net" modified="2023-10-29T00:12:26.412Z" agent="Mozilla/5.0 (Windows NT 10.0; Win64; x64; rv:109.0) Gecko/20100101 Firefox/119.0" etag="E0ASBZh8cBeL8DHWG-80" version="22.0.8" type="device">
  <diagram name="Page-1" id="gGvhSPnYBzy_CIl15I6v">
    <mxGraphModel dx="2154" dy="716" grid="1" gridSize="10" guides="1" tooltips="1" connect="1" arrows="1" fold="1" page="1" pageScale="1" pageWidth="850" pageHeight="1100" math="0" shadow="0">
      <root>
        <mxCell id="0" />
        <mxCell id="1" parent="0" />
        <mxCell id="s5vFbVHL-_jGJU9hkJGK-106" value="Stores" style="rhombus;whiteSpace=wrap;html=1;" vertex="1" parent="1">
          <mxGeometry x="42.5" y="595" width="95" height="70" as="geometry" />
        </mxCell>
        <mxCell id="s5vFbVHL-_jGJU9hkJGK-6" value="" style="rounded=0;whiteSpace=wrap;html=1;" vertex="1" parent="1">
          <mxGeometry x="25" y="690" width="130" height="70" as="geometry" />
        </mxCell>
        <mxCell id="s5vFbVHL-_jGJU9hkJGK-1" value="Facility Employee" style="rounded=0;whiteSpace=wrap;html=1;" vertex="1" parent="1">
          <mxGeometry x="30" y="280" width="120" height="60" as="geometry" />
        </mxCell>
        <mxCell id="s5vFbVHL-_jGJU9hkJGK-2" value="Employee" style="rounded=0;whiteSpace=wrap;html=1;" vertex="1" parent="1">
          <mxGeometry x="110" y="80" width="120" height="60" as="geometry" />
        </mxCell>
        <mxCell id="s5vFbVHL-_jGJU9hkJGK-3" value="Product" style="rounded=0;whiteSpace=wrap;html=1;" vertex="1" parent="1">
          <mxGeometry x="360" y="510" width="120" height="60" as="geometry" />
        </mxCell>
        <mxCell id="s5vFbVHL-_jGJU9hkJGK-4" value="Stock" style="rounded=0;whiteSpace=wrap;html=1;" vertex="1" parent="1">
          <mxGeometry x="30" y="695" width="120" height="60" as="geometry" />
        </mxCell>
        <mxCell id="s5vFbVHL-_jGJU9hkJGK-5" value="Facility" style="rounded=0;whiteSpace=wrap;html=1;" vertex="1" parent="1">
          <mxGeometry x="30" y="510" width="120" height="60" as="geometry" />
        </mxCell>
        <mxCell id="s5vFbVHL-_jGJU9hkJGK-7" value="Driver" style="rounded=0;whiteSpace=wrap;html=1;" vertex="1" parent="1">
          <mxGeometry x="220" y="280" width="120" height="60" as="geometry" />
        </mxCell>
        <mxCell id="s5vFbVHL-_jGJU9hkJGK-8" value="" style="triangle;whiteSpace=wrap;html=1;rotation=-90;" vertex="1" parent="1">
          <mxGeometry x="140" y="160" width="60" height="80" as="geometry" />
        </mxCell>
        <mxCell id="s5vFbVHL-_jGJU9hkJGK-9" value="ISA" style="text;html=1;strokeColor=none;fillColor=none;align=center;verticalAlign=middle;whiteSpace=wrap;rounded=0;" vertex="1" parent="1">
          <mxGeometry x="140" y="185" width="60" height="30" as="geometry" />
        </mxCell>
        <mxCell id="s5vFbVHL-_jGJU9hkJGK-10" value="" style="endArrow=none;html=1;rounded=0;" edge="1" parent="1" source="s5vFbVHL-_jGJU9hkJGK-1" target="s5vFbVHL-_jGJU9hkJGK-8">
          <mxGeometry width="50" height="50" relative="1" as="geometry">
            <mxPoint x="430" y="290" as="sourcePoint" />
            <mxPoint x="480" y="240" as="targetPoint" />
          </mxGeometry>
        </mxCell>
        <mxCell id="s5vFbVHL-_jGJU9hkJGK-11" value="" style="endArrow=none;html=1;rounded=0;" edge="1" parent="1" source="s5vFbVHL-_jGJU9hkJGK-7" target="s5vFbVHL-_jGJU9hkJGK-8">
          <mxGeometry width="50" height="50" relative="1" as="geometry">
            <mxPoint x="420" y="290" as="sourcePoint" />
            <mxPoint x="470" y="240" as="targetPoint" />
          </mxGeometry>
        </mxCell>
        <mxCell id="s5vFbVHL-_jGJU9hkJGK-12" value="" style="endArrow=none;html=1;rounded=0;" edge="1" parent="1" source="s5vFbVHL-_jGJU9hkJGK-8" target="s5vFbVHL-_jGJU9hkJGK-2">
          <mxGeometry width="50" height="50" relative="1" as="geometry">
            <mxPoint x="430" y="290" as="sourcePoint" />
            <mxPoint x="480" y="240" as="targetPoint" />
          </mxGeometry>
        </mxCell>
        <mxCell id="s5vFbVHL-_jGJU9hkJGK-13" value="Vendor" style="rounded=0;whiteSpace=wrap;html=1;" vertex="1" parent="1">
          <mxGeometry x="360" y="780" width="120" height="60" as="geometry" />
        </mxCell>
        <mxCell id="s5vFbVHL-_jGJU9hkJGK-14" value="Orders" style="rounded=0;whiteSpace=wrap;html=1;" vertex="1" parent="1">
          <mxGeometry x="695" y="490" width="120" height="60" as="geometry" />
        </mxCell>
        <mxCell id="s5vFbVHL-_jGJU9hkJGK-15" value="Vehicle" style="rounded=0;whiteSpace=wrap;html=1;" vertex="1" parent="1">
          <mxGeometry x="695" y="280" width="120" height="60" as="geometry" />
        </mxCell>
        <mxCell id="s5vFbVHL-_jGJU9hkJGK-16" value="Sells" style="rhombus;whiteSpace=wrap;html=1;" vertex="1" parent="1">
          <mxGeometry x="375" y="650" width="90" height="60" as="geometry" />
        </mxCell>
        <mxCell id="s5vFbVHL-_jGJU9hkJGK-17" value="Purchases" style="rhombus;whiteSpace=wrap;html=1;" vertex="1" parent="1">
          <mxGeometry x="210" y="510" width="90" height="60" as="geometry" />
        </mxCell>
        <mxCell id="s5vFbVHL-_jGJU9hkJGK-18" value="Stores" style="rhombus;whiteSpace=wrap;html=1;" vertex="1" parent="1">
          <mxGeometry x="50" y="600" width="80" height="60" as="geometry" />
        </mxCell>
        <mxCell id="s5vFbVHL-_jGJU9hkJGK-19" value="Works At" style="rhombus;whiteSpace=wrap;html=1;" vertex="1" parent="1">
          <mxGeometry x="45" y="400" width="90" height="60" as="geometry" />
        </mxCell>
        <mxCell id="s5vFbVHL-_jGJU9hkJGK-20" value="Delivers" style="rhombus;whiteSpace=wrap;html=1;" vertex="1" parent="1">
          <mxGeometry x="710" y="390" width="90" height="60" as="geometry" />
        </mxCell>
        <mxCell id="s5vFbVHL-_jGJU9hkJGK-21" value="Drives" style="rhombus;whiteSpace=wrap;html=1;" vertex="1" parent="1">
          <mxGeometry x="410" y="280" width="90" height="60" as="geometry" />
        </mxCell>
        <mxCell id="s5vFbVHL-_jGJU9hkJGK-22" value="" style="endArrow=none;html=1;rounded=0;" edge="1" parent="1" source="s5vFbVHL-_jGJU9hkJGK-18" target="s5vFbVHL-_jGJU9hkJGK-5">
          <mxGeometry width="50" height="50" relative="1" as="geometry">
            <mxPoint x="400" y="480" as="sourcePoint" />
            <mxPoint x="450" y="430" as="targetPoint" />
          </mxGeometry>
        </mxCell>
        <mxCell id="s5vFbVHL-_jGJU9hkJGK-23" value="" style="endArrow=none;html=1;rounded=0;" edge="1" parent="1" source="s5vFbVHL-_jGJU9hkJGK-18" target="s5vFbVHL-_jGJU9hkJGK-4">
          <mxGeometry width="50" height="50" relative="1" as="geometry">
            <mxPoint x="400" y="480" as="sourcePoint" />
            <mxPoint x="450" y="430" as="targetPoint" />
          </mxGeometry>
        </mxCell>
        <mxCell id="s5vFbVHL-_jGJU9hkJGK-24" value="" style="endArrow=none;html=1;rounded=0;" edge="1" parent="1" source="s5vFbVHL-_jGJU9hkJGK-5" target="s5vFbVHL-_jGJU9hkJGK-19">
          <mxGeometry width="50" height="50" relative="1" as="geometry">
            <mxPoint x="400" y="560" as="sourcePoint" />
            <mxPoint x="450" y="510" as="targetPoint" />
          </mxGeometry>
        </mxCell>
        <mxCell id="s5vFbVHL-_jGJU9hkJGK-25" value="" style="endArrow=none;html=1;rounded=0;" edge="1" parent="1" source="s5vFbVHL-_jGJU9hkJGK-17" target="s5vFbVHL-_jGJU9hkJGK-5">
          <mxGeometry width="50" height="50" relative="1" as="geometry">
            <mxPoint x="400" y="540" as="sourcePoint" />
            <mxPoint x="450" y="490" as="targetPoint" />
          </mxGeometry>
        </mxCell>
        <mxCell id="s5vFbVHL-_jGJU9hkJGK-26" value="" style="endArrow=none;html=1;rounded=0;" edge="1" parent="1" source="s5vFbVHL-_jGJU9hkJGK-3" target="s5vFbVHL-_jGJU9hkJGK-17">
          <mxGeometry width="50" height="50" relative="1" as="geometry">
            <mxPoint x="400" y="560" as="sourcePoint" />
            <mxPoint x="450" y="510" as="targetPoint" />
          </mxGeometry>
        </mxCell>
        <mxCell id="s5vFbVHL-_jGJU9hkJGK-27" value="" style="endArrow=none;html=1;rounded=0;strokeWidth=1;" edge="1" parent="1" source="s5vFbVHL-_jGJU9hkJGK-15" target="s5vFbVHL-_jGJU9hkJGK-20">
          <mxGeometry width="50" height="50" relative="1" as="geometry">
            <mxPoint x="515" y="560" as="sourcePoint" />
            <mxPoint x="555" y="450" as="targetPoint" />
          </mxGeometry>
        </mxCell>
        <mxCell id="s5vFbVHL-_jGJU9hkJGK-30" value="" style="endArrow=none;html=1;rounded=0;strokeWidth=3;" edge="1" parent="1" source="s5vFbVHL-_jGJU9hkJGK-16" target="s5vFbVHL-_jGJU9hkJGK-13">
          <mxGeometry width="50" height="50" relative="1" as="geometry">
            <mxPoint x="420" y="750" as="sourcePoint" />
            <mxPoint x="460" y="540" as="targetPoint" />
          </mxGeometry>
        </mxCell>
        <mxCell id="s5vFbVHL-_jGJU9hkJGK-31" value="" style="endArrow=none;html=1;rounded=0;strokeWidth=3;" edge="1" parent="1" source="s5vFbVHL-_jGJU9hkJGK-3" target="s5vFbVHL-_jGJU9hkJGK-16">
          <mxGeometry width="50" height="50" relative="1" as="geometry">
            <mxPoint x="430" y="590" as="sourcePoint" />
            <mxPoint x="470" y="480" as="targetPoint" />
          </mxGeometry>
        </mxCell>
        <mxCell id="s5vFbVHL-_jGJU9hkJGK-33" value="" style="endArrow=classic;html=1;rounded=0;" edge="1" parent="1" source="s5vFbVHL-_jGJU9hkJGK-14" target="s5vFbVHL-_jGJU9hkJGK-20">
          <mxGeometry width="50" height="50" relative="1" as="geometry">
            <mxPoint x="395" y="470" as="sourcePoint" />
            <mxPoint x="445" y="420" as="targetPoint" />
          </mxGeometry>
        </mxCell>
        <mxCell id="s5vFbVHL-_jGJU9hkJGK-34" value="" style="endArrow=none;html=1;rounded=0;" edge="1" parent="1" source="s5vFbVHL-_jGJU9hkJGK-21" target="s5vFbVHL-_jGJU9hkJGK-15">
          <mxGeometry width="50" height="50" relative="1" as="geometry">
            <mxPoint x="280" y="470" as="sourcePoint" />
            <mxPoint x="330" y="420" as="targetPoint" />
          </mxGeometry>
        </mxCell>
        <mxCell id="s5vFbVHL-_jGJU9hkJGK-35" value="" style="endArrow=classic;html=1;rounded=0;strokeWidth=3;" edge="1" parent="1" source="s5vFbVHL-_jGJU9hkJGK-1" target="s5vFbVHL-_jGJU9hkJGK-19">
          <mxGeometry width="50" height="50" relative="1" as="geometry">
            <mxPoint x="280" y="410" as="sourcePoint" />
            <mxPoint x="330" y="360" as="targetPoint" />
          </mxGeometry>
        </mxCell>
        <mxCell id="s5vFbVHL-_jGJU9hkJGK-36" value="&lt;u&gt;employeeID&lt;/u&gt;" style="ellipse;whiteSpace=wrap;html=1;" vertex="1" parent="1">
          <mxGeometry x="-70" y="20" width="70" height="40" as="geometry" />
        </mxCell>
        <mxCell id="s5vFbVHL-_jGJU9hkJGK-37" value="employee_type" style="ellipse;whiteSpace=wrap;html=1;" vertex="1" parent="1">
          <mxGeometry x="330" y="20" width="70" height="40" as="geometry" />
        </mxCell>
        <mxCell id="s5vFbVHL-_jGJU9hkJGK-38" value="facilityID" style="ellipse;whiteSpace=wrap;html=1;" vertex="1" parent="1">
          <mxGeometry x="250" y="20" width="70" height="40" as="geometry" />
        </mxCell>
        <mxCell id="s5vFbVHL-_jGJU9hkJGK-39" value="salary" style="ellipse;whiteSpace=wrap;html=1;" vertex="1" parent="1">
          <mxGeometry x="170" y="20" width="70" height="40" as="geometry" />
        </mxCell>
        <mxCell id="s5vFbVHL-_jGJU9hkJGK-40" value="job_title" style="ellipse;whiteSpace=wrap;html=1;" vertex="1" parent="1">
          <mxGeometry x="90" y="20" width="70" height="40" as="geometry" />
        </mxCell>
        <mxCell id="s5vFbVHL-_jGJU9hkJGK-41" value="name" style="ellipse;whiteSpace=wrap;html=1;" vertex="1" parent="1">
          <mxGeometry x="10" y="20" width="70" height="40" as="geometry" />
        </mxCell>
        <mxCell id="s5vFbVHL-_jGJU9hkJGK-42" value="" style="endArrow=none;html=1;rounded=0;" edge="1" parent="1" source="s5vFbVHL-_jGJU9hkJGK-2" target="s5vFbVHL-_jGJU9hkJGK-37">
          <mxGeometry width="50" height="50" relative="1" as="geometry">
            <mxPoint x="280" y="290" as="sourcePoint" />
            <mxPoint x="330" y="240" as="targetPoint" />
          </mxGeometry>
        </mxCell>
        <mxCell id="s5vFbVHL-_jGJU9hkJGK-43" value="" style="endArrow=none;html=1;rounded=0;" edge="1" parent="1" source="s5vFbVHL-_jGJU9hkJGK-2" target="s5vFbVHL-_jGJU9hkJGK-38">
          <mxGeometry width="50" height="50" relative="1" as="geometry">
            <mxPoint x="280" y="290" as="sourcePoint" />
            <mxPoint x="330" y="240" as="targetPoint" />
          </mxGeometry>
        </mxCell>
        <mxCell id="s5vFbVHL-_jGJU9hkJGK-44" value="" style="endArrow=none;html=1;rounded=0;" edge="1" parent="1" source="s5vFbVHL-_jGJU9hkJGK-2" target="s5vFbVHL-_jGJU9hkJGK-39">
          <mxGeometry width="50" height="50" relative="1" as="geometry">
            <mxPoint x="280" y="290" as="sourcePoint" />
            <mxPoint x="330" y="240" as="targetPoint" />
          </mxGeometry>
        </mxCell>
        <mxCell id="s5vFbVHL-_jGJU9hkJGK-45" value="" style="endArrow=none;html=1;rounded=0;" edge="1" parent="1" source="s5vFbVHL-_jGJU9hkJGK-2" target="s5vFbVHL-_jGJU9hkJGK-40">
          <mxGeometry width="50" height="50" relative="1" as="geometry">
            <mxPoint x="280" y="290" as="sourcePoint" />
            <mxPoint x="330" y="240" as="targetPoint" />
          </mxGeometry>
        </mxCell>
        <mxCell id="s5vFbVHL-_jGJU9hkJGK-46" value="" style="endArrow=none;html=1;rounded=0;" edge="1" parent="1" source="s5vFbVHL-_jGJU9hkJGK-2" target="s5vFbVHL-_jGJU9hkJGK-41">
          <mxGeometry width="50" height="50" relative="1" as="geometry">
            <mxPoint x="280" y="290" as="sourcePoint" />
            <mxPoint x="330" y="240" as="targetPoint" />
          </mxGeometry>
        </mxCell>
        <mxCell id="s5vFbVHL-_jGJU9hkJGK-47" value="" style="endArrow=none;html=1;rounded=0;" edge="1" parent="1" source="s5vFbVHL-_jGJU9hkJGK-2" target="s5vFbVHL-_jGJU9hkJGK-36">
          <mxGeometry width="50" height="50" relative="1" as="geometry">
            <mxPoint x="280" y="290" as="sourcePoint" />
            <mxPoint x="330" y="240" as="targetPoint" />
          </mxGeometry>
        </mxCell>
        <mxCell id="s5vFbVHL-_jGJU9hkJGK-49" value="address" style="ellipse;whiteSpace=wrap;html=1;" vertex="1" parent="1">
          <mxGeometry x="-60" y="550" width="70" height="40" as="geometry" />
        </mxCell>
        <mxCell id="s5vFbVHL-_jGJU9hkJGK-50" value="name" style="ellipse;whiteSpace=wrap;html=1;" vertex="1" parent="1">
          <mxGeometry x="-60" y="500" width="70" height="40" as="geometry" />
        </mxCell>
        <mxCell id="s5vFbVHL-_jGJU9hkJGK-51" value="&lt;u&gt;facilityID&lt;/u&gt;" style="ellipse;whiteSpace=wrap;html=1;" vertex="1" parent="1">
          <mxGeometry x="-60" y="450" width="70" height="40" as="geometry" />
        </mxCell>
        <mxCell id="s5vFbVHL-_jGJU9hkJGK-53" value="" style="endArrow=none;html=1;rounded=0;" edge="1" parent="1" source="s5vFbVHL-_jGJU9hkJGK-5" target="s5vFbVHL-_jGJU9hkJGK-49">
          <mxGeometry width="50" height="50" relative="1" as="geometry">
            <mxPoint x="280" y="510" as="sourcePoint" />
            <mxPoint x="330" y="460" as="targetPoint" />
          </mxGeometry>
        </mxCell>
        <mxCell id="s5vFbVHL-_jGJU9hkJGK-54" value="" style="endArrow=none;html=1;rounded=0;" edge="1" parent="1" source="s5vFbVHL-_jGJU9hkJGK-5" target="s5vFbVHL-_jGJU9hkJGK-50">
          <mxGeometry width="50" height="50" relative="1" as="geometry">
            <mxPoint x="280" y="510" as="sourcePoint" />
            <mxPoint x="330" y="460" as="targetPoint" />
          </mxGeometry>
        </mxCell>
        <mxCell id="s5vFbVHL-_jGJU9hkJGK-55" value="" style="endArrow=none;html=1;rounded=0;" edge="1" parent="1" source="s5vFbVHL-_jGJU9hkJGK-5" target="s5vFbVHL-_jGJU9hkJGK-51">
          <mxGeometry width="50" height="50" relative="1" as="geometry">
            <mxPoint x="280" y="510" as="sourcePoint" />
            <mxPoint x="330" y="460" as="targetPoint" />
          </mxGeometry>
        </mxCell>
        <mxCell id="s5vFbVHL-_jGJU9hkJGK-56" value="amount" style="ellipse;whiteSpace=wrap;html=1;" vertex="1" parent="1">
          <mxGeometry x="15" y="780" width="70" height="40" as="geometry" />
        </mxCell>
        <mxCell id="s5vFbVHL-_jGJU9hkJGK-57" value="&lt;u&gt;facilityID&lt;/u&gt;" style="ellipse;whiteSpace=wrap;html=1;" vertex="1" parent="1">
          <mxGeometry x="175" y="780" width="70" height="40" as="geometry" />
        </mxCell>
        <mxCell id="s5vFbVHL-_jGJU9hkJGK-58" value="desired_amount" style="ellipse;whiteSpace=wrap;html=1;" vertex="1" parent="1">
          <mxGeometry x="95" y="780" width="70" height="40" as="geometry" />
        </mxCell>
        <mxCell id="s5vFbVHL-_jGJU9hkJGK-59" value="&lt;u&gt;productID&lt;/u&gt;" style="ellipse;whiteSpace=wrap;html=1;" vertex="1" parent="1">
          <mxGeometry x="-65" y="780" width="70" height="40" as="geometry" />
        </mxCell>
        <mxCell id="s5vFbVHL-_jGJU9hkJGK-60" value="" style="endArrow=none;html=1;rounded=0;" edge="1" parent="1" source="s5vFbVHL-_jGJU9hkJGK-4" target="s5vFbVHL-_jGJU9hkJGK-57">
          <mxGeometry width="50" height="50" relative="1" as="geometry">
            <mxPoint x="280" y="660" as="sourcePoint" />
            <mxPoint x="330" y="610" as="targetPoint" />
          </mxGeometry>
        </mxCell>
        <mxCell id="s5vFbVHL-_jGJU9hkJGK-61" value="" style="endArrow=none;html=1;rounded=0;" edge="1" parent="1" source="s5vFbVHL-_jGJU9hkJGK-58" target="s5vFbVHL-_jGJU9hkJGK-4">
          <mxGeometry width="50" height="50" relative="1" as="geometry">
            <mxPoint x="280" y="660" as="sourcePoint" />
            <mxPoint x="330" y="610" as="targetPoint" />
          </mxGeometry>
        </mxCell>
        <mxCell id="s5vFbVHL-_jGJU9hkJGK-62" value="" style="endArrow=none;html=1;rounded=0;" edge="1" parent="1" source="s5vFbVHL-_jGJU9hkJGK-56" target="s5vFbVHL-_jGJU9hkJGK-4">
          <mxGeometry width="50" height="50" relative="1" as="geometry">
            <mxPoint x="280" y="660" as="sourcePoint" />
            <mxPoint x="330" y="610" as="targetPoint" />
          </mxGeometry>
        </mxCell>
        <mxCell id="s5vFbVHL-_jGJU9hkJGK-63" value="" style="endArrow=none;html=1;rounded=0;" edge="1" parent="1" source="s5vFbVHL-_jGJU9hkJGK-59" target="s5vFbVHL-_jGJU9hkJGK-4">
          <mxGeometry width="50" height="50" relative="1" as="geometry">
            <mxPoint x="280" y="660" as="sourcePoint" />
            <mxPoint x="330" y="610" as="targetPoint" />
          </mxGeometry>
        </mxCell>
        <mxCell id="s5vFbVHL-_jGJU9hkJGK-64" value="capacity" style="ellipse;whiteSpace=wrap;html=1;" vertex="1" parent="1">
          <mxGeometry x="845" y="215" width="70" height="40" as="geometry" />
        </mxCell>
        <mxCell id="s5vFbVHL-_jGJU9hkJGK-65" value="driverID" style="ellipse;whiteSpace=wrap;html=1;" vertex="1" parent="1">
          <mxGeometry x="765" y="215" width="70" height="40" as="geometry" />
        </mxCell>
        <mxCell id="s5vFbVHL-_jGJU9hkJGK-66" value="type" style="ellipse;whiteSpace=wrap;html=1;" vertex="1" parent="1">
          <mxGeometry x="685" y="215" width="70" height="40" as="geometry" />
        </mxCell>
        <mxCell id="s5vFbVHL-_jGJU9hkJGK-67" value="&lt;u&gt;vehicleID&lt;/u&gt;" style="ellipse;whiteSpace=wrap;html=1;" vertex="1" parent="1">
          <mxGeometry x="610" y="215" width="70" height="40" as="geometry" />
        </mxCell>
        <mxCell id="s5vFbVHL-_jGJU9hkJGK-68" value="" style="endArrow=none;html=1;rounded=0;" edge="1" parent="1" source="s5vFbVHL-_jGJU9hkJGK-15" target="s5vFbVHL-_jGJU9hkJGK-64">
          <mxGeometry width="50" height="50" relative="1" as="geometry">
            <mxPoint x="345" y="350" as="sourcePoint" />
            <mxPoint x="395" y="300" as="targetPoint" />
          </mxGeometry>
        </mxCell>
        <mxCell id="s5vFbVHL-_jGJU9hkJGK-69" value="" style="endArrow=none;html=1;rounded=0;" edge="1" parent="1" source="s5vFbVHL-_jGJU9hkJGK-15" target="s5vFbVHL-_jGJU9hkJGK-65">
          <mxGeometry width="50" height="50" relative="1" as="geometry">
            <mxPoint x="345" y="350" as="sourcePoint" />
            <mxPoint x="395" y="300" as="targetPoint" />
          </mxGeometry>
        </mxCell>
        <mxCell id="s5vFbVHL-_jGJU9hkJGK-70" value="" style="endArrow=none;html=1;rounded=0;" edge="1" parent="1" source="s5vFbVHL-_jGJU9hkJGK-15" target="s5vFbVHL-_jGJU9hkJGK-66">
          <mxGeometry width="50" height="50" relative="1" as="geometry">
            <mxPoint x="345" y="350" as="sourcePoint" />
            <mxPoint x="395" y="300" as="targetPoint" />
          </mxGeometry>
        </mxCell>
        <mxCell id="s5vFbVHL-_jGJU9hkJGK-71" value="" style="endArrow=none;html=1;rounded=0;" edge="1" parent="1" source="s5vFbVHL-_jGJU9hkJGK-15" target="s5vFbVHL-_jGJU9hkJGK-67">
          <mxGeometry width="50" height="50" relative="1" as="geometry">
            <mxPoint x="345" y="350" as="sourcePoint" />
            <mxPoint x="663.0654054889819" y="250.04265575368368" as="targetPoint" />
          </mxGeometry>
        </mxCell>
        <mxCell id="s5vFbVHL-_jGJU9hkJGK-72" value="address" style="ellipse;whiteSpace=wrap;html=1;" vertex="1" parent="1">
          <mxGeometry x="470" y="870" width="70" height="40" as="geometry" />
        </mxCell>
        <mxCell id="s5vFbVHL-_jGJU9hkJGK-73" value="name" style="ellipse;whiteSpace=wrap;html=1;" vertex="1" parent="1">
          <mxGeometry x="395" y="870" width="70" height="40" as="geometry" />
        </mxCell>
        <mxCell id="s5vFbVHL-_jGJU9hkJGK-74" value="&lt;u&gt;vendorID&lt;/u&gt;" style="ellipse;whiteSpace=wrap;html=1;" vertex="1" parent="1">
          <mxGeometry x="320" y="870" width="70" height="40" as="geometry" />
        </mxCell>
        <mxCell id="s5vFbVHL-_jGJU9hkJGK-75" value="" style="endArrow=none;html=1;rounded=0;" edge="1" parent="1" source="s5vFbVHL-_jGJU9hkJGK-13" target="s5vFbVHL-_jGJU9hkJGK-72">
          <mxGeometry width="50" height="50" relative="1" as="geometry">
            <mxPoint x="280" y="750" as="sourcePoint" />
            <mxPoint x="330" y="700" as="targetPoint" />
          </mxGeometry>
        </mxCell>
        <mxCell id="s5vFbVHL-_jGJU9hkJGK-76" value="" style="endArrow=none;html=1;rounded=0;" edge="1" parent="1" source="s5vFbVHL-_jGJU9hkJGK-73" target="s5vFbVHL-_jGJU9hkJGK-13">
          <mxGeometry width="50" height="50" relative="1" as="geometry">
            <mxPoint x="280" y="750" as="sourcePoint" />
            <mxPoint x="330" y="700" as="targetPoint" />
          </mxGeometry>
        </mxCell>
        <mxCell id="s5vFbVHL-_jGJU9hkJGK-77" value="" style="endArrow=none;html=1;rounded=0;" edge="1" parent="1" source="s5vFbVHL-_jGJU9hkJGK-13" target="s5vFbVHL-_jGJU9hkJGK-74">
          <mxGeometry width="50" height="50" relative="1" as="geometry">
            <mxPoint x="280" y="750" as="sourcePoint" />
            <mxPoint x="330" y="700" as="targetPoint" />
          </mxGeometry>
        </mxCell>
        <mxCell id="s5vFbVHL-_jGJU9hkJGK-78" value="image" style="ellipse;whiteSpace=wrap;html=1;" vertex="1" parent="1">
          <mxGeometry x="470" y="438.92" width="70" height="40" as="geometry" />
        </mxCell>
        <mxCell id="s5vFbVHL-_jGJU9hkJGK-79" value="description" style="ellipse;whiteSpace=wrap;html=1;" vertex="1" parent="1">
          <mxGeometry x="390" y="438.92" width="70" height="40" as="geometry" />
        </mxCell>
        <mxCell id="s5vFbVHL-_jGJU9hkJGK-80" value="name" style="ellipse;whiteSpace=wrap;html=1;" vertex="1" parent="1">
          <mxGeometry x="305" y="438.92" width="70" height="40" as="geometry" />
        </mxCell>
        <mxCell id="s5vFbVHL-_jGJU9hkJGK-82" value="&lt;u&gt;productID&lt;/u&gt;" style="ellipse;whiteSpace=wrap;html=1;" vertex="1" parent="1">
          <mxGeometry x="230" y="438.92" width="70" height="40" as="geometry" />
        </mxCell>
        <mxCell id="s5vFbVHL-_jGJU9hkJGK-84" value="" style="endArrow=none;html=1;rounded=0;" edge="1" parent="1" target="s5vFbVHL-_jGJU9hkJGK-80">
          <mxGeometry width="50" height="50" relative="1" as="geometry">
            <mxPoint x="390" y="508.92" as="sourcePoint" />
            <mxPoint x="330" y="458.92" as="targetPoint" />
          </mxGeometry>
        </mxCell>
        <mxCell id="s5vFbVHL-_jGJU9hkJGK-85" value="" style="endArrow=none;html=1;rounded=0;" edge="1" parent="1" source="s5vFbVHL-_jGJU9hkJGK-79">
          <mxGeometry width="50" height="50" relative="1" as="geometry">
            <mxPoint x="280" y="508.92" as="sourcePoint" />
            <mxPoint x="421.875" y="508.92" as="targetPoint" />
          </mxGeometry>
        </mxCell>
        <mxCell id="s5vFbVHL-_jGJU9hkJGK-86" value="" style="endArrow=none;html=1;rounded=0;" edge="1" parent="1" target="s5vFbVHL-_jGJU9hkJGK-78">
          <mxGeometry width="50" height="50" relative="1" as="geometry">
            <mxPoint x="451.875" y="508.92" as="sourcePoint" />
            <mxPoint x="330" y="458.92" as="targetPoint" />
          </mxGeometry>
        </mxCell>
        <mxCell id="s5vFbVHL-_jGJU9hkJGK-87" value="" style="endArrow=none;html=1;rounded=0;" edge="1" parent="1" target="s5vFbVHL-_jGJU9hkJGK-82">
          <mxGeometry width="50" height="50" relative="1" as="geometry">
            <mxPoint x="361.875" y="508.92" as="sourcePoint" />
            <mxPoint x="330" y="458.92" as="targetPoint" />
          </mxGeometry>
        </mxCell>
        <mxCell id="s5vFbVHL-_jGJU9hkJGK-89" value="price" style="ellipse;whiteSpace=wrap;html=1;" vertex="1" parent="1">
          <mxGeometry x="480" y="630" width="70" height="40" as="geometry" />
        </mxCell>
        <mxCell id="s5vFbVHL-_jGJU9hkJGK-91" value="" style="endArrow=none;html=1;rounded=0;" edge="1" parent="1" source="s5vFbVHL-_jGJU9hkJGK-16" target="s5vFbVHL-_jGJU9hkJGK-89">
          <mxGeometry width="50" height="50" relative="1" as="geometry">
            <mxPoint x="280" y="620" as="sourcePoint" />
            <mxPoint x="330" y="570" as="targetPoint" />
          </mxGeometry>
        </mxCell>
        <mxCell id="s5vFbVHL-_jGJU9hkJGK-92" value="amount" style="ellipse;whiteSpace=wrap;html=1;" vertex="1" parent="1">
          <mxGeometry x="790" y="580" width="70" height="40" as="geometry" />
        </mxCell>
        <mxCell id="s5vFbVHL-_jGJU9hkJGK-93" value="productID" style="ellipse;whiteSpace=wrap;html=1;" vertex="1" parent="1">
          <mxGeometry x="710" y="580" width="70" height="40" as="geometry" />
        </mxCell>
        <mxCell id="s5vFbVHL-_jGJU9hkJGK-94" value="&lt;u&gt;orderID&lt;/u&gt;" style="ellipse;whiteSpace=wrap;html=1;" vertex="1" parent="1">
          <mxGeometry x="630" y="580" width="70" height="40" as="geometry" />
        </mxCell>
        <mxCell id="s5vFbVHL-_jGJU9hkJGK-95" value="" style="endArrow=none;html=1;rounded=0;" edge="1" parent="1" source="s5vFbVHL-_jGJU9hkJGK-14" target="s5vFbVHL-_jGJU9hkJGK-92">
          <mxGeometry width="50" height="50" relative="1" as="geometry">
            <mxPoint x="280" y="620" as="sourcePoint" />
            <mxPoint x="330" y="570" as="targetPoint" />
          </mxGeometry>
        </mxCell>
        <mxCell id="s5vFbVHL-_jGJU9hkJGK-96" value="" style="endArrow=none;html=1;rounded=0;" edge="1" parent="1" source="s5vFbVHL-_jGJU9hkJGK-14" target="s5vFbVHL-_jGJU9hkJGK-93">
          <mxGeometry width="50" height="50" relative="1" as="geometry">
            <mxPoint x="280" y="620" as="sourcePoint" />
            <mxPoint x="330" y="570" as="targetPoint" />
          </mxGeometry>
        </mxCell>
        <mxCell id="s5vFbVHL-_jGJU9hkJGK-97" value="" style="endArrow=none;html=1;rounded=0;" edge="1" parent="1" source="s5vFbVHL-_jGJU9hkJGK-14" target="s5vFbVHL-_jGJU9hkJGK-94">
          <mxGeometry width="50" height="50" relative="1" as="geometry">
            <mxPoint x="280" y="620" as="sourcePoint" />
            <mxPoint x="330" y="570" as="targetPoint" />
          </mxGeometry>
        </mxCell>
        <mxCell id="s5vFbVHL-_jGJU9hkJGK-98" value="price" style="ellipse;whiteSpace=wrap;html=1;" vertex="1" parent="1">
          <mxGeometry x="551" y="438.92" width="70" height="40" as="geometry" />
        </mxCell>
        <mxCell id="s5vFbVHL-_jGJU9hkJGK-99" value="" style="endArrow=none;html=1;rounded=0;" edge="1" parent="1" target="s5vFbVHL-_jGJU9hkJGK-98">
          <mxGeometry width="50" height="50" relative="1" as="geometry">
            <mxPoint x="480" y="510.00433734939764" as="sourcePoint" />
            <mxPoint x="494" y="648.92" as="targetPoint" />
          </mxGeometry>
        </mxCell>
        <mxCell id="s5vFbVHL-_jGJU9hkJGK-100" value="unitPrice" style="ellipse;whiteSpace=wrap;html=1;" vertex="1" parent="1">
          <mxGeometry x="175" y="590" width="70" height="40" as="geometry" />
        </mxCell>
        <mxCell id="s5vFbVHL-_jGJU9hkJGK-101" value="amount" style="ellipse;whiteSpace=wrap;html=1;" vertex="1" parent="1">
          <mxGeometry x="270" y="590" width="70" height="40" as="geometry" />
        </mxCell>
        <mxCell id="s5vFbVHL-_jGJU9hkJGK-102" value="" style="endArrow=none;html=1;rounded=0;" edge="1" parent="1" source="s5vFbVHL-_jGJU9hkJGK-101" target="s5vFbVHL-_jGJU9hkJGK-17">
          <mxGeometry width="50" height="50" relative="1" as="geometry">
            <mxPoint x="200" y="620" as="sourcePoint" />
            <mxPoint x="250" y="570" as="targetPoint" />
          </mxGeometry>
        </mxCell>
        <mxCell id="s5vFbVHL-_jGJU9hkJGK-103" value="" style="endArrow=none;html=1;rounded=0;" edge="1" parent="1" source="s5vFbVHL-_jGJU9hkJGK-100" target="s5vFbVHL-_jGJU9hkJGK-17">
          <mxGeometry width="50" height="50" relative="1" as="geometry">
            <mxPoint x="200" y="620" as="sourcePoint" />
            <mxPoint x="250" y="570" as="targetPoint" />
          </mxGeometry>
        </mxCell>
        <mxCell id="s5vFbVHL-_jGJU9hkJGK-107" value="" style="endArrow=none;html=1;rounded=0;entryX=0;entryY=0.5;entryDx=0;entryDy=0;" edge="1" parent="1" source="s5vFbVHL-_jGJU9hkJGK-7" target="s5vFbVHL-_jGJU9hkJGK-21">
          <mxGeometry width="50" height="50" relative="1" as="geometry">
            <mxPoint x="280" y="550" as="sourcePoint" />
            <mxPoint x="330" y="500" as="targetPoint" />
          </mxGeometry>
        </mxCell>
      </root>
    </mxGraphModel>
  </diagram>
</mxfile>
